<?xml version="1.0" encoding="UTF-8"?>
<svg width="20px" height="17px" viewBox="0 0 20 17" version="1.1" xmlns="http://www.w3.org/2000/svg" xmlns:xlink="http://www.w3.org/1999/xlink">
    <!-- Generator: Sketch 61.2 (89653) - https://sketch.com -->
    <title>toolbox 2</title>
    <desc>Created with Sketch.</desc>
    <g id="Page-1" stroke="none" stroke-width="1" fill="none" fill-rule="evenodd">
        <g id="toolbox" fill="#000000" fill-rule="nonzero">
            <path d="M7,2 L7,3 L13,3 L13,2 L7,2 L7,2 Z M20,15 C20,15.53 19.79,16 19.4,16.41 C19,16.81 18.55,17 18,17 L2,17 C1.45,17 1,16.81 0.6,16.41 C0.21,16 0,15.53 0,15 L0,11 L5,11 L5,12 L7,12 L7,11 L13,11 L13,12 L15,12 L15,11 L20,11 L20,15 L20,15 Z M2.5,4.22 C2.84,3.41 3.45,3 4.33,3 L5,3 L5,2 C5,1.45 5.18,1 5.57,0.59 C5.96,0.2 6.44,0 7,0 L13,0 C13.56,0 14.04,0.2 14.43,0.59 C14.82,1 15,1.45 15,2 L15,3 L15.67,3 C16.55,3 17.16,3.41 17.5,4.22 L19.58,9 L15,9 L15,8 L13,8 L13,9 L7,9 L7,8 L5,8 L5,9 L0.42,9 L2.5,4.22 Z" id="Shape"></path>
        </g>
    </g>
</svg>